<?xml version="1.0" standalone="no"?>
<!DOCTYPE svg PUBLIC "-//W3C//DTD SVG 20010904//EN"
 "http://www.w3.org/TR/2001/REC-SVG-20010904/DTD/svg10.dtd">
<svg version="1.0" xmlns="http://www.w3.org/2000/svg"
 width="43.000000pt" height="37.000000pt" viewBox="0 0 43.000000 37.000000"
 preserveAspectRatio="xMidYMid meet">

<!-- "#0b7ba1" -->
<g transform="translate(0.000000,37.000000) scale(0.100000,-0.100000)"
fill="#fff" stroke="none">
<path d="M98 330 c-33 -18 -86 -85 -76 -96 12 -11 38 10 38 32 0 18 7 25 28
30 15 3 34 8 44 10 20 6 23 0 32 -51 6 -32 5 -38 -5 -27 -19 18 -30 15 -68
-18 -40 -35 -39 -35 -64 -13 -19 18 -19 17 -12 -27 10 -61 36 -101 83 -128 99
-56 231 3 249 111 4 29 11 36 34 41 24 4 29 10 28 33 l-1 28 -7 -25 c-6 -20
-16 -27 -54 -34 -27 -4 -50 -6 -52 -4 -3 3 -8 26 -11 52 -5 34 -3 50 6 56 23
14 -38 44 -99 47 -41 2 -65 -2 -93 -17z m170 -64 c2 -2 -4 -21 -12 -41 -13
-31 -20 -36 -38 -31 -13 3 -26 6 -29 6 -11 0 -17 64 -7 82 8 17 11 17 45 3 20
-9 39 -17 41 -19z m-56 -111 c16 -19 15 -22 -25 -62 -22 -24 -46 -43 -51 -43
-6 0 -30 19 -53 42 l-43 42 47 48 47 48 31 -28 c16 -15 38 -36 47 -47z m82 9
c13 -34 6 -52 -21 -57 -16 -3 -28 -5 -29 -4 -1 1 -4 16 -7 34 -5 25 -2 33 11
36 32 9 40 7 46 -9z"/>
<path d="M377 320 c6 -8 13 -26 16 -40 l4 -25 2 26 c0 15 -7 33 -16 40 -16 12
-17 12 -6 -1z"/>
<path d="M323 313 c9 -2 23 -2 30 0 6 3 -1 5 -18 5 -16 0 -22 -2 -12 -5z"/>
</g>
</svg>
